# xmcd
#
# Track frame offsets:
#	182
#	15762
#	33260
#	49622
#	67075
#	82402
#	96920
#	113307
#	129160
#	147140
#	160662
#	178372
#
# Disc length: 2545 seconds
#
# Revision: 0
# Processed by: cddbd v1.4PL0 Copyright (c) Steve Scherf et al.
# Submitted via: audiograbber 1.81.01
#
DISCID=9309ef0c
DTITLE=Al Bano e Romina Power - I grandi successi originali cd2
DYEAR=1900
DGENRE=pop
TTITLE0=Ci Sarà
TTITLE1=Perchè
TTITLE2=Io Ti Cerco
TTITLE3=Caro Gesù
TTITLE4=Un'Isola Nella Città
TTITLE5=Aria Pura
TTITLE6=Ciao, Aufwiederehen, coodbye
TTITLE7=Grazie
TTITLE8=Immagini 77
TTITLE9=Abbandonati
TTITLE10=L'amore E
TTITLE11=Il Ballo Del Qua' Qua'
EXTD=
EXTT0=
EXTT1=
EXTT2=
EXTT3=
EXTT4=
EXTT5=
EXTT6=
EXTT7=
EXTT8=
EXTT9=
EXTT10=
EXTT11=
PLAYORDER=
